<svg id="Capa_1" enable-background="new 0 0 497 497" height="512" viewBox="0 0 497 497" width="512" xmlns="http://www.w3.org/2000/svg"><g><g fill="#ffce71"><path d="m116 293.73c0 12.407-10.093 22.5-22.5 22.5s-22.5-10.094-22.5-22.5 10.093-22.5 22.5-22.5v-15c-20.678 0-37.5 16.822-37.5 37.5s16.822 37.5 37.5 37.5 37.5-16.822 37.5-37.5z"/><path d="m403.5 256.23v15c12.407 0 22.5 10.093 22.5 22.5s-10.093 22.5-22.5 22.5-22.5-10.093-22.5-22.5h-15c0 20.678 16.822 37.5 37.5 37.5s37.5-16.822 37.5-37.5-16.822-37.5-37.5-37.5z"/></g><g><path d="m289.197 382.971c-2.534-.907-5.108-1.729-7.716-2.468-10.49-2.976-21.552-4.577-32.983-4.577-66.744 0-121.072 54.34-121.072 121.075h242.147c0-52.027-33.18-97.134-80.376-114.03z" fill="#db9e82"/><path d="m248.499 375.925c-29.359 0-56.315 10.514-77.302 27.972-26.725 22.231-43.77 55.722-43.77 93.103h66c0-54.913 37.002-102.005 88.055-116.498-10.49-2.976-21.552-4.577-32.983-4.577z" fill="#c8866a"/></g><g><path d="m203.984 447.666c-13.027-12.631-24.173-27.342-32.787-43.768-26.727 22.231-43.77 55.72-43.77 93.103h66 131.232c-45.486-.001-88.759-18.389-120.675-49.335z" fill="#ff8f71"/><path d="m171.196 403.897c-26.727 22.231-43.77 55.72-43.77 93.103h66c0-17.51 3.764-34.229 10.545-49.346-13.026-12.631-24.16-27.33-32.775-43.757z" fill="#ff6f4d"/></g><g fill="#c8866a"><circle cx="103.372" cy="243.629" r="36.081"/><circle cx="393.628" cy="243.629" r="36.081"/></g><g><g><path d="m289.184 382.966c60.347-17.591 104.443-73.311 104.443-139.337 0-80.153-64.976-145.129-145.129-145.129-80.15 0-145.127 64.976-145.127 145.129 0 66.026 44.097 121.746 104.442 139.337 12.91 3.763 26.56 5.789 40.684 5.789 14.127.001 27.777-2.026 40.687-5.789z" fill="#db9e82"/><path d="m151.481 243.629c0-71.957 52.372-131.671 121.073-143.133-7.825-1.306-15.859-1.996-24.055-1.996-80.15 0-145.127 64.976-145.127 145.129 0 80.15 64.977 145.126 145.127 145.126 8.196 0 16.229-.69 24.055-1.996-68.701-11.461-121.073-71.175-121.073-143.13z" fill="#c8866a"/></g><g fill="#c8866a"><ellipse cx="171.522" cy="280.5" rx="27.022" ry="22.5"/><ellipse cx="325.478" cy="280.5" rx="27.022" ry="22.5"/></g></g><g fill="#313d40"><path d="m209.871 251.89c-3.123-2.721-7.86-2.396-10.582.727-4.391 5.041-12.196 5.037-16.584 0-2.722-3.123-7.459-3.447-10.582-.727-3.123 2.722-3.448 7.459-.727 10.582 10.372 11.901 28.84 11.888 39.202 0 2.721-3.123 2.396-7.861-.727-10.582z"/><path d="m324.877 251.89c-3.123-2.721-7.861-2.396-10.582.727-4.391 5.041-12.196 5.037-16.584 0-2.721-3.123-7.459-3.447-10.582-.727-3.123 2.722-3.448 7.459-.727 10.582 10.372 11.901 28.84 11.889 39.202 0 2.721-3.123 2.396-7.861-.727-10.582z"/></g><g><path d="m107.843 76.61-.019 131.209c86.647-51.925 194.705-51.925 281.353 0l.159-131.209z" fill="#ff6f4d"/><path d="m433.97 124.034c-3.641-23.077-27.79-51.409-63.348-66.072l-82.036-.029-40 45.519c57.77 26.75 100.534 53.876 140.59 104.368 17.211-8.71 32.39-21.418 40.267-39.696 5.408-12.546 7.45-27.275 4.527-44.09z" fill="#ffb39d"/><path d="m342.147 16.962c-20.581-7.549-44.413-12.912-66.461-15.433-8.745-.99-17.785-1.529-27.12-1.528-37.636-.098-74.559 9.124-103.008 24.43-55.87 29.226-81.346 74.631-83.639 109.827-2.722 36.194 19.812 60.143 45.905 73.562 16.357-21.263 31.533-35.614 50.009-50.353 28.753-22.544 61.593-41.844 98.844-57.505 36.831-15.895 78.072-28.149 113.946-42-.001-18.273-11.321-34.708-28.476-41z" fill="#ff8f71"/><path d="m248.566.001c-37.636-.098-74.559 9.123-103.008 24.43-55.87 29.226-81.346 74.631-83.639 109.827-.954 12.686 1.197 23.983 5.517 33.884 8.006 18.346 23.44 30.962 40.387 39.677 16.357-21.263 31.533-35.614 50.009-50.353.68-.533 1.374-1.056 2.059-1.585-6.087-61.267 27.195-121.64 88.675-155.88z" fill="#ff6f4d"/></g><g><path d="m278.5 302.167h-60c-16.569 0-30 12.386-30 40 0 31.094 16.953 65.006 35.617 59.112 5.444 12.643 14.333 20.888 24.383 20.888s18.939-8.245 24.383-20.888c18.663 5.894 35.617-28.016 35.617-59.112 0-27.615-13.431-40-30-40z" fill="#d4d4ff"/><path d="m312.307 322.706c-1.723-6.645-4.228-13.088-7.471-19.157-7.828-14.646-21.891-24.852-38.583-27.999-7.104-1.339-14.007 1.845-17.751 7.521-3.745-5.676-10.65-8.86-17.752-7.521-16.692 3.146-30.754 13.352-38.582 27.999-3.243 6.068-5.747 12.511-7.471 19.156-2.866 11.048 5.409 21.844 16.822 21.844 7.864 0 14.856-5.252 16.795-12.874 1.036-4.069 2.559-8.015 4.542-11.726 2.792-5.225 8.153-9.04 14.341-10.207 4.829-.911 8.803-3.771 11.305-7.577 2.502 3.806 6.476 6.667 11.305 7.577 6.189 1.167 11.55 4.983 14.342 10.205 1.983 3.712 3.506 7.658 4.542 11.727 1.94 7.622 8.931 12.874 16.795 12.874 11.413.002 19.687-10.794 16.821-21.842z" fill="#efedff"/></g><path d="m282.676 94.87c-3.081-16.024-14.562-28.45-28.904-30.926-1.72-.297-3.48-.452-5.272-.452-19.33 0-35 17.909-35 40s15.67 40 35 40 35-17.909 35-40c0-2.962-.29-5.845-.824-8.622z" fill="#ffce71"/></g></svg>