<svg id="Capa_1" enable-background="new 0 0 512 512" height="512" viewBox="0 0 512 512" width="512" xmlns="http://www.w3.org/2000/svg"><g><g><path d="m416.662 356.316c-11.044-11.044-11.044-28.95 0-39.994l.006-.006c11.044-11.044 11.044-28.95 0-39.994l-20.003-20.003h-140.665-140.686l-20.003 20.003c-11.044 11.044-11.044 28.95 0 39.994l.006.006c11.044 11.044 11.044 28.95 0 39.994l-.006.006c-11.044 11.044-11.044 28.95 0 39.994l.006.006c37.873 37.873 99.279 56.808 160.683 56.806 61.397-.002 122.793-18.938 160.662-56.806 0 0 .006-.006.006-.006 11.044-11.044 11.044-28.95 0-39.994z" fill="#efedff"/><path d="m115.314 256.319-20.003 20.003c-11.044 11.044-11.044 28.95 0 39.994l.006.006c11.044 11.044 11.044 28.95 0 39.994l-.006.006c-11.044 11.044-11.044 28.95 0 39.994l.006.006c37.873 37.873 99.279 56.808 160.683 56.806v-196.809z" fill="#d4d4ff"/></g><g><path d="m296.697 390.471c-2.534-.907-5.108-1.729-7.716-2.468-10.49-2.976-21.552-4.577-32.983-4.577-66.744 0-121.072 54.34-121.072 121.075h242.147c0-52.027-33.18-97.134-80.376-114.03z" fill="#b28ae4"/><g fill="#976bcf"><path d="m288.981 388.002c-10.49-2.976-21.552-4.577-32.983-4.577-66.744 0-121.072 54.34-121.072 121.075h66c0-20.623 5.215-40.072 14.377-57.111-.005-.002-.011-.005-.017-.007 15.36-28.572 41.859-50.342 73.695-59.38z"/><path d="m248.5 424.361h15v80.139h-15z"/></g></g><g><g fill="#ffbd86"><circle cx="110.862" cy="251.129" r="36.081"/><circle cx="401.117" cy="251.129" r="36.081"/></g><g><path d="m322.534 122.123c-13.123-6.783-27.413-11.624-42.491-14.139-7.824-1.305-15.86-1.984-24.055-1.984-23.977 0-46.593 5.819-66.52 16.115-46.687 24.122-78.606 72.838-78.606 129.014 0 26.043 6.865 50.48 18.878 71.609 18.442 32.438 49.01 57.08 85.553 67.733 12.91 3.763 26.571 5.785 40.696 5.785 8.195 0 16.231-.682 24.055-1.99 5.661-.946 11.227-2.215 16.646-3.795 36.546-10.653 67.112-35.297 85.553-67.738 12.011-21.128 18.875-45.563 18.875-71.604-.001-56.167-31.908-104.88-78.584-129.006z" fill="#fed2a4"/><path d="m158.97 251.129c0-71.957 52.372-131.683 121.073-143.145-7.825-1.306-15.859-1.984-24.055-1.984-80.15 0-145.127 64.976-145.127 145.129 0 80.15 64.977 145.127 145.127 145.127 8.196 0 16.229-.684 24.055-1.99-68.701-11.462-121.073-71.182-121.073-143.137z" fill="#ffbd86"/><path d="m322.534 122.123c3.361 14.42 4.588 32.52-1.819 53.902-2.257 7.534 1.464 15.569 8.677 18.704l29.829 12.962c7.702 3.347 12.851 10.708 13.483 19.082 1.676 22.225-.574 44.744-6.843 66.5-2.694 9.351.549 19.516 8.458 25.561 2.374 1.815 5.075 3.1 7.924 3.9 12.011-21.128 18.875-45.563 18.875-71.604-.001-56.168-31.908-104.881-78.584-129.007z" fill="#efedff"/><path d="m146.139 293.272c-6.269-21.755-8.519-44.275-6.843-66.5.632-8.374 5.781-15.735 13.483-19.082l29.829-12.962c7.213-3.135 10.934-11.17 8.677-18.704-6.408-21.386-5.179-39.488-1.817-53.91-46.687 24.122-78.606 72.838-78.606 129.014 0 26.043 6.865 50.48 18.878 71.609 2.856-.799 5.563-2.086 7.942-3.905 7.908-6.044 11.151-16.209 8.457-25.56z" fill="#d4d4ff"/></g><g fill="#ffbd86"><ellipse cx="176.871" cy="300.5" rx="28.882" ry="23"/><ellipse cx="334.989" cy="300.5" rx="29" ry="23"/></g><g><path d="m286 309.667h-60c-16.569 0-30 12.386-30 40 0 31.094 16.953 65.006 35.617 59.112 5.444 12.643 14.333 20.888 24.383 20.888s18.939-8.245 24.383-20.888c18.663 5.894 35.617-28.017 35.617-59.112 0-27.615-13.431-40-30-40z" fill="#d4d4ff"/><path d="m303.87 294.693c-6.886 0-13.343-2.954-18.204-7.83-3.614-3.625-8.611-5.868-14.134-5.868-6.275 0-11.871 2.896-15.532 7.423-3.661-4.526-9.257-7.423-15.532-7.423-5.523 0-10.52 2.243-14.134 5.868-4.862 4.876-11.319 7.83-18.204 7.83-3.099 0-5.409 2.842-4.804 5.881 2.733 13.727 14.847 24.073 29.377 24.073 9.412 0 17.806-4.345 23.297-11.134 5.491 6.789 13.885 11.134 23.297 11.134 14.53 0 26.644-10.346 29.377-24.073.605-3.039-1.705-5.881-4.804-5.881z" fill="#efedff"/></g><g fill="#313d40"><path d="m193.541 259c-4.142 0-7.5 3.358-7.5 7.5v12c0 4.142 3.358 7.5 7.5 7.5s7.5-3.358 7.5-7.5v-12c0-4.142-3.358-7.5-7.5-7.5z"/><path d="m318.438 259c-4.142 0-7.5 3.358-7.5 7.5v12c0 4.142 3.358 7.5 7.5 7.5s7.5-3.358 7.5-7.5v-12c0-4.142-3.358-7.5-7.5-7.5z"/></g></g><g fill="#ffce71"><path d="m500.681 294.024c-4.182-2.559-8.767-4.525-13.638-5.778-1.254-4.871-3.219-9.456-5.778-13.638-3.117-5.092-10.413-5.092-13.529 0-2.56 4.182-4.524 8.768-5.779 13.638-4.87 1.254-9.455 3.219-13.638 5.778-2.546 1.558-3.819 4.161-3.819 6.764s1.273 5.206 3.819 6.764c4.182 2.559 8.77 4.534 13.641 5.788 1.254 4.87 3.216 9.447 5.776 13.629 3.116 5.092 10.412 5.092 13.529 0 2.559-4.182 4.522-8.759 5.776-13.629 4.87-1.254 9.458-3.228 13.64-5.788 5.092-3.115 5.092-10.412 0-13.528z"/><path d="m126.544 398.108c-4.879-2.986-10.229-5.279-15.911-6.741-1.463-5.683-3.756-11.032-6.742-15.911-3.636-5.941-12.149-5.941-15.784 0-2.986 4.879-5.279 10.229-6.742 15.911-5.682 1.463-11.031 3.755-15.911 6.741-2.969 1.818-4.454 4.855-4.454 7.892s1.485 6.074 4.456 7.892c4.879 2.986 10.231 5.289 15.914 6.752 1.463 5.682 3.753 11.021 6.739 15.901 3.635 5.941 12.148 5.941 15.784 0 2.986-4.879 5.275-10.218 6.739-15.901 5.682-1.463 11.035-3.766 15.913-6.752 5.94-3.636 5.94-12.148-.001-15.784z"/></g><g fill="#ffce71"><path d="m47.5 329h-6c-4.142 0-7.5 3.358-7.5 7.5s3.358 7.5 7.5 7.5h6c4.142 0 7.5-3.358 7.5-7.5s-3.358-7.5-7.5-7.5z"/><path d="m13.5 329h-6c-4.142 0-7.5 3.358-7.5 7.5s3.358 7.5 7.5 7.5h6c4.142 0 7.5-3.358 7.5-7.5s-3.358-7.5-7.5-7.5z"/><path d="m27.5 343c-4.142 0-7.5 3.358-7.5 7.5v6c0 4.142 3.358 7.5 7.5 7.5s7.5-3.358 7.5-7.5v-6c0-4.142-3.358-7.5-7.5-7.5z"/><path d="m27.5 330c4.142 0 7.5-3.358 7.5-7.5v-6c0-4.142-3.358-7.5-7.5-7.5s-7.5 3.358-7.5 7.5v6c0 4.142 3.358 7.5 7.5 7.5z"/><path d="m504.5 393.917h-6c-4.142 0-7.5 3.358-7.5 7.5s3.358 7.5 7.5 7.5h6c4.142 0 7.5-3.358 7.5-7.5s-3.358-7.5-7.5-7.5z"/><path d="m470.5 393.917h-6c-4.142 0-7.5 3.358-7.5 7.5s3.358 7.5 7.5 7.5h6c4.142 0 7.5-3.358 7.5-7.5s-3.358-7.5-7.5-7.5z"/><path d="m484.5 407.917c-4.142 0-7.5 3.358-7.5 7.5v6c0 4.142 3.358 7.5 7.5 7.5s7.5-3.358 7.5-7.5v-6c0-4.142-3.358-7.5-7.5-7.5z"/><path d="m484.5 394.917c4.142 0 7.5-3.358 7.5-7.5v-6c0-4.142-3.358-7.5-7.5-7.5s-7.5 3.358-7.5 7.5v6c0 4.142 3.358 7.5 7.5 7.5z"/></g><g><g><path d="m367.187 98.572c-11.744-21.585-26.531-40.788-43.508-56.797-8.743-8.244-18.062-15.647-27.847-22.086-4.849-3.191-10.039-5.822-15.483-7.821-7.677-2.818-15.864-4.368-24.349-4.368-9.188 0-18.044 1.788-26.326 5.288-3.424 1.447-6.753 3.18-9.963 5.211-16.26 10.29-31.333 23.193-44.682 38.209-9.935 11.176-18.916 23.522-26.715 36.841-7.302 12.47-13.569 25.79-18.62 39.795-9.214 25.549-14.38 53.376-14.38 82.475 25.728-29.26 58.305-48.424 93.005-57.502 15.608-4.083 31.644-6.128 47.682-6.128 51.687.002 103.372 21.211 140.665 63.629-.001-42.718-10.953-82.694-29.479-116.746z" fill="#b28ae4"/><path d="m280.348 11.869c-7.676-2.819-15.863-4.369-24.348-4.369-9.188 0-18.044 1.788-26.326 5.288-3.424 1.447-6.753 3.18-9.963 5.211-16.26 10.29-31.333 23.193-44.682 38.209-9.935 11.176-18.916 23.522-26.715 36.841-7.302 12.47-13.569 25.79-18.62 39.795-9.214 25.549-14.38 53.376-14.38 82.475 25.728-29.26 58.305-48.424 93.005-57.502.112-5.471.446-10.956 1.032-16.442 5.447-51.008 31.083-97.597 70.997-129.506z" fill="#976bcf"/></g><path d="m311.95 50.281-7.304 14.883-16.331 2.387c-12.661 1.85-17.716 17.497-8.555 26.478l11.817 11.584-2.789 16.358c-2.163 12.681 11.072 22.351 22.396 16.364l14.607-7.723c13.2 6.979 8.854 4.682 14.607 7.723 11.323 5.987 24.559-3.683 22.396-16.364l-2.79-16.358 7.182-7.041c-11.744-21.585-26.531-40.788-43.508-56.797-4.758.642-9.257 3.47-11.728 8.506z" fill="#ffce71"/><path d="m141.916 152.442 9.027-4.773c8.158 4.313 5.472 2.893 9.027 4.773 6.998 3.7 15.177-2.276 13.84-10.113l-1.724-10.109 7.303-7.159c5.662-5.55 2.537-15.22-5.287-16.363l-10.092-1.475-4.513-9.197c-2.199-4.481-7.032-6.146-11.183-4.976-7.302 12.47-13.569 25.79-18.62 39.795l-1.617 9.485c-1.338 7.836 6.841 13.812 13.839 10.112z" fill="#ffb357"/><g><path d="m257.83 33.058c-1.281-.614-2.693-1.056-4.226-1.28l-15.298-2.236c-7.529-15.343-7.255-15.049-8.633-16.754-3.424 1.447-6.753 3.18-9.963 5.211-16.26 10.29-31.333 23.193-44.682 38.209.594.622 10.806 10.619 11.423 11.223l-2.613 15.323c-2.026 11.878 10.371 20.937 20.979 15.329l13.683-7.234c1.04.55 1.949 1.031 2.772 1.466 8.962 4.738 5.975 3.159 10.911 5.769 10.607 5.608 23.005-3.45 20.978-15.329l-2.613-15.323 11.07-10.851c7.472-7.326 4.845-19.384-3.788-23.523z" fill="#ffce71"/><path d="m253.605 31.777-15.298-2.236c-7.529-15.343-7.255-15.049-8.633-16.754-3.424 1.447-6.753 3.18-9.963 5.211-16.26 10.29-31.333 23.193-44.682 38.209.594.622 10.806 10.619 11.423 11.223l-2.613 15.323c-2.026 11.878 10.371 20.937 20.979 15.329l13.683-7.234c1.04.55 1.949 1.031 2.772 1.466 8.456-21.783 20.843-41.873 36.558-59.256-1.282-.614-2.694-1.057-4.226-1.281z" fill="#ffb357"/></g></g><g><path d="m429.094 396.737c6.084-10.929 2.158-24.72-8.77-30.805-13.66-7.606-30.899-2.698-38.505 10.962-8.502 15.269-4.495 34.116 8.658 44.73 3.534 2.852 6.43 6.413 8.328 10.538 3.171 6.894 3.47 14.766.831 21.88-3.264 8.8-4.402 18.247-3.321 27.571l2.653 22.885h24.293l-1.544-17.76c-1.104-12.691.827-25.462 5.632-37.26 6.847-16.809 7.466-35.513 1.745-52.741z" fill="#ce857a"/><g><circle cx="396.343" cy="460.64" fill="#ffbd86" r="20"/><circle cx="432.22" cy="457.933" fill="#fed2a4" r="30"/></g></g></g></svg>